<svg id="visual" viewBox="0 0 900 600" width="900" height="600" xmlns="http://www.w3.org/2000/svg" xmlns:xlink="http://www.w3.org/1999/xlink" version="1.1"><path d="M0 281L25 269.8C50 258.7 100 236.3 150 212.2C200 188 250 162 300 159C350 156 400 176 450 197.5C500 219 550 242 600 239.2C650 236.3 700 207.7 750 212C800 216.3 850 253.7 875 272.3L900 291L900 601L875 601C850 601 800 601 750 601C700 601 650 601 600 601C550 601 500 601 450 601C400 601 350 601 300 601C250 601 200 601 150 601C100 601 50 601 25 601L0 601Z" fill="#23222a"></path><path d="M0 333L25 345.5C50 358 100 383 150 383.2C200 383.3 250 358.7 300 338.2C350 317.7 400 301.3 450 301C500 300.7 550 316.3 600 320.3C650 324.3 700 316.7 750 319C800 321.3 850 333.7 875 339.8L900 346L900 601L875 601C850 601 800 601 750 601C700 601 650 601 600 601C550 601 500 601 450 601C400 601 350 601 300 601C250 601 200 601 150 601C100 601 50 601 25 601L0 601Z" fill="#332d38"></path><path d="M0 423L25 431.7C50 440.3 100 457.7 150 458.7C200 459.7 250 444.3 300 440.7C350 437 400 445 450 444.3C500 443.7 550 434.3 600 433C650 431.7 700 438.3 750 433.8C800 429.3 850 413.7 875 405.8L900 398L900 601L875 601C850 601 800 601 750 601C700 601 650 601 600 601C550 601 500 601 450 601C400 601 350 601 300 601C250 601 200 601 150 601C100 601 50 601 25 601L0 601Z" fill="#443946"></path></svg>