<svg id="visual" viewBox="0 0 900 600" width="900" height="600" xmlns="http://www.w3.org/2000/svg" xmlns:xlink="http://www.w3.org/1999/xlink" version="1.1"><path d="M0 253L25 260C50 267 100 281 150 289.8C200 298.7 250 302.3 300 297.8C350 293.3 400 280.7 450 254.7C500 228.7 550 189.3 600 182.7C650 176 700 202 750 227.5C800 253 850 278 875 290.5L900 303L900 601L875 601C850 601 800 601 750 601C700 601 650 601 600 601C550 601 500 601 450 601C400 601 350 601 300 601C250 601 200 601 150 601C100 601 50 601 25 601L0 601Z" fill="#23222a"></path><path d="M0 327L25 319C50 311 100 295 150 297.8C200 300.7 250 322.3 300 323C350 323.7 400 303.3 450 294.7C500 286 550 289 600 293C650 297 700 302 750 313.3C800 324.7 850 342.3 875 351.2L900 360L900 601L875 601C850 601 800 601 750 601C700 601 650 601 600 601C550 601 500 601 450 601C400 601 350 601 300 601C250 601 200 601 150 601C100 601 50 601 25 601L0 601Z" fill="#332d38"></path><path d="M0 459L25 452.7C50 446.3 100 433.7 150 436.3C200 439 250 457 300 469C350 481 400 487 450 473.8C500 460.7 550 428.3 600 427.7C650 427 700 458 750 471.2C800 484.3 850 479.7 875 477.3L900 475L900 601L875 601C850 601 800 601 750 601C700 601 650 601 600 601C550 601 500 601 450 601C400 601 350 601 300 601C250 601 200 601 150 601C100 601 50 601 25 601L0 601Z" fill="#443946"></path></svg>