<svg id="visual" viewBox="0 0 900 600" width="900" height="600" xmlns="http://www.w3.org/2000/svg" xmlns:xlink="http://www.w3.org/1999/xlink" version="1.1">
	<path id="darker" d="M0 297L25 299.2C50 301.3 100 305.7 150 318.3C200 331 250 352 300 354.3C350 356.7 400 340.3 450 329.2C500 318 550 312 600 313.5C650 315 700 324 750 327.2C800 330.3 850 327.7 875 326.3L900 325L900 601L875 601C850 601 800 601 750 601C700 601 650 601 600 601C550 601 500 601 450 601C400 601 350 601 300 601C250 601 200 601 150 601C100 601 50 601 25 601L0 601Z" fill="#332d38"/>
	<path id="lighter" d="M0 485L25 481.5C50 478 100 471 150 473.7C200 476.3 250 488.7 300 480.3C350 472 400 443 450 428.2C500 413.3 550 412.7 600 410.5C650 408.3 700 404.7 750 420.8C800 437 850 473 875 491L900 509L900 601L875 601C850 601 800 601 750 601C700 601 650 601 600 601C550 601 500 601 450 601C400 601 350 601 300 601C250 601 200 601 150 601C100 601 50 601 25 601L0 601Z" fill="#443946"/>
</svg>