<svg id="visual" viewBox="0 0 900 600" width="900" height="600" xmlns="http://www.w3.org/2000/svg" xmlns:xlink="http://www.w3.org/1999/xlink" version="1.1">
	<path id="darker" d="M0 324L25 330.8C50 337.7 100 351.3 150 365.5C200 379.7 250 394.3 300 395C350 395.7 400 382.3 450 371.3C500 360.3 550 351.7 600 336.8C650 322 700 301 750 295.3C800 289.7 850 299.3 875 304.2L900 309L900 601L875 601C850 601 800 601 750 601C700 601 650 601 600 601C550 601 500 601 450 601C400 601 350 601 300 601C250 601 200 601 150 601C100 601 50 601 25 601L0 601Z" fill="#332d38"/>
	<path id="lighter" d="M0 456L25 464.2C50 472.3 100 488.7 150 497C200 505.3 250 505.7 300 506C350 506.3 400 506.7 450 488.2C500 469.7 550 432.3 600 420.7C650 409 700 423 750 426.2C800 429.3 850 421.7 875 417.8L900 414L900 601L875 601C850 601 800 601 750 601C700 601 650 601 600 601C550 601 500 601 450 601C400 601 350 601 300 601C250 601 200 601 150 601C100 601 50 601 25 601L0 601Z" fill="#443946"/>
</svg>