<svg id="visual" viewBox="0 0 900 600" width="900" height="600" xmlns="http://www.w3.org/2000/svg" xmlns:xlink="http://www.w3.org/1999/xlink" version="1.1">
	<path id="darker" d="M0 305L25 309.2C50 313.3 100 321.7 150 323.3C200 325 250 320 300 330.7C350 341.3 400 367.7 450 363.7C500 359.7 550 325.3 600 312.2C650 299 700 307 750 302.8C800 298.7 850 282.3 875 274.2L900 266L900 601L875 601C850 601 800 601 750 601C700 601 650 601 600 601C550 601 500 601 450 601C400 601 350 601 300 601C250 601 200 601 150 601C100 601 50 601 25 601L0 601Z" fill="#332d38"/>
	<path id="lighter" d="M0 421L25 433.3C50 445.7 100 470.3 150 483.3C200 496.3 250 497.7 300 484C350 470.3 400 441.7 450 428.8C500 416 550 419 600 429.8C650 440.7 700 459.3 750 463.2C800 467 850 456 875 450.5L900 445L900 601L875 601C850 601 800 601 750 601C700 601 650 601 600 601C550 601 500 601 450 601C400 601 350 601 300 601C250 601 200 601 150 601C100 601 50 601 25 601L0 601Z" fill="#443946"/>
</svg>