<svg id="visual" viewBox="0 0 900 600" width="900" height="600" xmlns="http://www.w3.org/2000/svg" xmlns:xlink="http://www.w3.org/1999/xlink" version="1.1"><path d="M0 191L25 190.8C50 190.7 100 190.3 150 192.5C200 194.7 250 199.3 300 217C350 234.7 400 265.3 450 258.3C500 251.3 550 206.7 600 194C650 181.3 700 200.7 750 211.3C800 222 850 224 875 225L900 226L900 601L875 601C850 601 800 601 750 601C700 601 650 601 600 601C550 601 500 601 450 601C400 601 350 601 300 601C250 601 200 601 150 601C100 601 50 601 25 601L0 601Z" fill="#23222a"></path><path d="M0 407L25 405.2C50 403.3 100 399.7 150 388.8C200 378 250 360 300 354.5C350 349 400 356 450 354.5C500 353 550 343 600 348C650 353 700 373 750 376.8C800 380.7 850 368.3 875 362.2L900 356L900 601L875 601C850 601 800 601 750 601C700 601 650 601 600 601C550 601 500 601 450 601C400 601 350 601 300 601C250 601 200 601 150 601C100 601 50 601 25 601L0 601Z" fill="#332d38"></path><path d="M0 447L25 451.5C50 456 100 465 150 464.2C200 463.3 250 452.7 300 446.3C350 440 400 438 450 441.7C500 445.3 550 454.7 600 449.3C650 444 700 424 750 415.5C800 407 850 410 875 411.5L900 413L900 601L875 601C850 601 800 601 750 601C700 601 650 601 600 601C550 601 500 601 450 601C400 601 350 601 300 601C250 601 200 601 150 601C100 601 50 601 25 601L0 601Z" fill="#443946"></path></svg>