<svg id="visual" viewBox="0 0 900 600" width="900" height="600" xmlns="http://www.w3.org/2000/svg" xmlns:xlink="http://www.w3.org/1999/xlink" version="1.1"><path d="M0 171L25 192.5C50 214 100 257 150 265.3C200 273.7 250 247.3 300 227.5C350 207.7 400 194.3 450 193.3C500 192.3 550 203.7 600 198.8C650 194 700 173 750 187.2C800 201.3 850 250.7 875 275.3L900 300L900 601L875 601C850 601 800 601 750 601C700 601 650 601 600 601C550 601 500 601 450 601C400 601 350 601 300 601C250 601 200 601 150 601C100 601 50 601 25 601L0 601Z" fill="#23222a"></path><path d="M0 380L25 363.2C50 346.3 100 312.7 150 314C200 315.3 250 351.7 300 368.3C350 385 400 382 450 374.7C500 367.3 550 355.7 600 343.7C650 331.7 700 319.3 750 314C800 308.7 850 310.3 875 311.2L900 312L900 601L875 601C850 601 800 601 750 601C700 601 650 601 600 601C550 601 500 601 450 601C400 601 350 601 300 601C250 601 200 601 150 601C100 601 50 601 25 601L0 601Z" fill="#332d38"></path><path d="M0 408L25 421.8C50 435.7 100 463.3 150 480.2C200 497 250 503 300 501.5C350 500 400 491 450 488.7C500 486.3 550 490.7 600 478C650 465.3 700 435.7 750 425.7C800 415.7 850 425.3 875 430.2L900 435L900 601L875 601C850 601 800 601 750 601C700 601 650 601 600 601C550 601 500 601 450 601C400 601 350 601 300 601C250 601 200 601 150 601C100 601 50 601 25 601L0 601Z" fill="#443946"></path></svg>