<svg id="visual" viewBox="0 0 900 600" preserveAspectRatio="none" xmlns="http://www.w3.org/2000/svg" xmlns:xlink="http://www.w3.org/1999/xlink" version="1.1"><path d="M0 281L25 283.5C50 286 100 291 150 267.7C200 244.3 250 192.7 300 182.3C350 172 400 203 450 211.2C500 219.3 550 204.7 600 202.5C650 200.3 700 210.7 750 203.2C800 195.7 850 170.3 875 157.7L900 145L900 601L875 601C850 601 800 601 750 601C700 601 650 601 600 601C550 601 500 601 450 601C400 601 350 601 300 601C250 601 200 601 150 601C100 601 50 601 25 601L0 601Z" fill="#23222a"></path><path d="M0 345L25 337.5C50 330 100 315 150 308.2C200 301.3 250 302.7 300 307.5C350 312.3 400 320.7 450 328.7C500 336.7 550 344.3 600 337.3C650 330.3 700 308.7 750 307.8C800 307 850 327 875 337L900 347L900 601L875 601C850 601 800 601 750 601C700 601 650 601 600 601C550 601 500 601 450 601C400 601 350 601 300 601C250 601 200 601 150 601C100 601 50 601 25 601L0 601Z" fill="#332d38"></path><path d="M0 457L25 458.5C50 460 100 463 150 469C200 475 250 484 300 482.7C350 481.3 400 469.7 450 462.2C500 454.7 550 451.3 600 448C650 444.7 700 441.3 750 438.5C800 435.7 850 433.3 875 432.2L900 431L900 601L875 601C850 601 800 601 750 601C700 601 650 601 600 601C550 601 500 601 450 601C400 601 350 601 300 601C250 601 200 601 150 601C100 601 50 601 25 601L0 601Z" fill="#443946"></path></svg>