<svg id="visual" viewBox="0 0 900 600" width="900" height="600" xmlns="http://www.w3.org/2000/svg" xmlns:xlink="http://www.w3.org/1999/xlink" version="1.1"><path d="M0 258L25 242.3C50 226.7 100 195.3 150 202.8C200 210.3 250 256.7 300 277.7C350 298.7 400 294.3 450 279.7C500 265 550 240 600 237.3C650 234.7 700 254.3 750 247.7C800 241 850 208 875 191.5L900 175L900 601L875 601C850 601 800 601 750 601C700 601 650 601 600 601C550 601 500 601 450 601C400 601 350 601 300 601C250 601 200 601 150 601C100 601 50 601 25 601L0 601Z" fill="#23222a"></path><path d="M0 402L25 396C50 390 100 378 150 354.8C200 331.7 250 297.3 300 282.2C350 267 400 271 450 293.3C500 315.7 550 356.3 600 356.3C650 356.3 700 315.7 750 296.3C800 277 850 279 875 280L900 281L900 601L875 601C850 601 800 601 750 601C700 601 650 601 600 601C550 601 500 601 450 601C400 601 350 601 300 601C250 601 200 601 150 601C100 601 50 601 25 601L0 601Z" fill="#332d38"></path><path d="M0 466L25 459.7C50 453.3 100 440.7 150 432.3C200 424 250 420 300 425C350 430 400 444 450 459.2C500 474.3 550 490.7 600 483.5C650 476.3 700 445.7 750 434.8C800 424 850 433 875 437.5L900 442L900 601L875 601C850 601 800 601 750 601C700 601 650 601 600 601C550 601 500 601 450 601C400 601 350 601 300 601C250 601 200 601 150 601C100 601 50 601 25 601L0 601Z" fill="#443946"></path></svg>