<svg id="visual" viewBox="0 0 960 540" width="960" height="540" xmlns="http://www.w3.org/2000/svg" xmlns:xlink="http://www.w3.org/1999/xlink" version="1.1"><rect x="0" y="0" width="960" height="540" fill="#FF0066"></rect><g transform="translate(518.964066109794 274.7352311100159)"><path d="M243.9 -323.4C281.3 -259.3 252.8 -149.5 272.1 -47C291.3 55.5 358.3 150.5 342.8 217.2C327.3 283.9 229.3 322.4 132.3 353.4C35.2 384.3 -60.9 407.8 -170.5 398.3C-280 388.8 -403.1 346.3 -420.7 266.7C-438.4 187 -350.7 70.3 -317.6 -45.4C-284.6 -161.1 -306.2 -275.9 -262.4 -338.8C-218.5 -401.8 -109.3 -412.9 -3 -409.3C103.3 -405.7 206.5 -387.5 243.9 -323.4" fill="#BB004B"></path></g></svg>