<svg id="visual" viewBox="0 0 960 540" width="960" height="540" xmlns="http://www.w3.org/2000/svg" xmlns:xlink="http://www.w3.org/1999/xlink" version="1.1"><rect x="0" y="0" width="960" height="540" fill="#FF0066"></rect><g transform="translate(400.53998964225156 265.3645946359947)"><path d="M191.8 -217C286.1 -149.6 425.7 -124.6 488.9 -44.9C552.2 34.8 539.2 169.3 470.3 255.4C401.4 341.6 276.6 379.4 160.8 406.1C44.9 432.9 -62 448.5 -136.4 407.3C-210.8 366.1 -252.6 268.1 -293.7 178.5C-334.8 88.9 -375.2 7.8 -370.6 -73.5C-366 -154.8 -316.4 -236.4 -247.1 -308.2C-177.8 -379.9 -88.9 -442 -20.1 -418.1C48.8 -394.2 97.6 -284.3 191.8 -217" fill="#BB004B"></path></g></svg>