<?xml version="1.0" encoding="UTF-8" standalone="no"?>
<svg
   id="visual"
   viewBox="0 0 960 170.15175"
   width="960"
   height="170.15175"
   version="1.1"
   sodipodi:docname="layered-waves-haikei.svg"
   inkscape:version="1.2.2 (732a01da63, 2022-12-09)"
   xmlns:inkscape="http://www.inkscape.org/namespaces/inkscape"
   xmlns:sodipodi="http://sodipodi.sourceforge.net/DTD/sodipodi-0.dtd"
   xmlns="http://www.w3.org/2000/svg"
   xmlns:svg="http://www.w3.org/2000/svg">
  <defs
     id="defs13" />
  <sodipodi:namedview
     id="namedview11"
     pagecolor="#505050"
     bordercolor="#eeeeee"
     borderopacity="1"
     inkscape:showpageshadow="0"
     inkscape:pageopacity="0"
     inkscape:pagecheckerboard="0"
     inkscape:deskcolor="#505050"
     showgrid="false"
     inkscape:zoom="1.2791667"
     inkscape:cx="480.39088"
     inkscape:cy="-100.84691"
     inkscape:window-width="1920"
     inkscape:window-height="1017"
     inkscape:window-x="-8"
     inkscape:window-y="-8"
     inkscape:window-maximized="1"
     inkscape:current-layer="visual" />
  <path
     d="m 0,116.15176 17.8,1.8 c 17.9,1.9 53.5,5.5 89,7 35.5,1.5 70.9,0.9 106.4,-1 35.5,-1.8 71.1,-4.8 106.8,-6.6 35.7,-1.9 71.3,-2.5 106.8,-0.2 35.5,2.3 70.9,7.7 106.4,7.7 35.5,0 71.1,-5.4 106.8,-8.9 35.7,-3.5 71.3,-5.1 106.8,-2.6 35.5,2.5 70.9,9.1 106.4,10 35.5,0.8 71.1,-4.2 89,-6.7 l 17.8,-2.5 v 56 h -17.8 c -17.9,0 -53.5,0 -89,0 -35.5,0 -70.9,0 -106.4,0 -35.5,0 -71.1,0 -106.8,0 -35.7,0 -71.3,0 -106.8,0 -35.5,0 -70.9,0 -106.4,0 -35.5,0 -71.1,0 -106.8,0 -35.7,0 -71.3,0 -106.8,0 -35.5,0 -70.9,0 -106.4,0 -35.5,0 -71.1,0 -89,0 H 0 Z"
     fill="#412cc9"
     id="path8" />
</svg>
